<?xml version="1.0" standalone="no"?>
<!DOCTYPE svg PUBLIC "-//W3C//DTD SVG 20010904//EN"
 "http://www.w3.org/TR/2001/REC-SVG-20010904/DTD/svg10.dtd">
<svg version="1.0" xmlns="http://www.w3.org/2000/svg"
 width="100.000000pt" height="107.000000pt" viewBox="0 0 100.000000 107.000000"
 preserveAspectRatio="xMidYMid meet">

<g transform="translate(0.000000,107.000000) scale(0.100000,-0.100000)"
fill="#000000" stroke="none">
<path d="M276 851 c-3 -4 6 -19 20 -32 18 -17 23 -19 18 -6 -3 9 -11 17 -16
17 -6 0 -8 7 -4 15 6 16 -9 21 -18 6z"/>
<path d="M443 751 c12 -32 27 -42 27 -18 0 8 -9 22 -20 32 -19 17 -19 17 -7
-14z"/>
<path d="M700 770 c-13 -8 -13 -10 2 -10 9 0 20 5 23 10 8 13 -5 13 -25 0z"/>
<path d="M646 761 c-4 -5 3 -7 14 -4 23 6 26 13 6 13 -8 0 -17 -4 -20 -9z"/>
<path d="M580 756 c0 -7 40 -14 44 -7 3 4 -6 8 -20 9 -13 1 -24 0 -24 -2z"/>
<path d="M543 730 c1 -11 2 -20 4 -20 1 0 7 9 13 20 8 16 8 20 -4 20 -9 0 -14
-8 -13 -20z"/>
<path d="M361 675 c12 -19 25 -38 30 -41 5 -3 9 -12 9 -20 0 -8 -4 -13 -9 -10
-5 3 -11 -4 -15 -17 -4 -19 -11 -22 -45 -20 -23 1 -44 -3 -48 -10 -5 -7 -17
-17 -28 -23 -45 -26 -3 -103 77 -145 51 -26 114 -39 127 -26 8 8 14 8 23 -1
17 -17 26 -15 33 8 5 16 9 18 25 7 17 -10 24 -7 54 22 20 19 36 28 40 22 9
-14 36 -2 36 15 0 8 5 14 10 14 35 0 -18 55 -61 64 -17 3 -28 10 -24 16 3 5 1
19 -6 31 -13 25 -5 32 71 62 l45 17 -72 -4 c-39 -2 -76 1 -82 7 -6 6 -19 6
-37 0 l-28 -9 2 -105 c2 -117 -3 -121 -13 -8 -6 71 -8 76 -30 75 -16 -1 -37
-19 -69 -63 -25 -35 -48 -63 -51 -63 -6 0 43 72 89 133 16 20 30 52 32 70 2
19 0 27 -4 19 -7 -10 -17 -9 -51 3 -24 8 -45 15 -47 15 -2 0 6 -16 17 -35z"/>
<path d="M201 208 c0 -7 6 -29 14 -48 10 -27 14 -31 19 -17 19 53 18 53 29 17
l10 -35 13 30 c7 17 13 39 13 50 -1 11 -5 5 -11 -15 l-11 -35 -10 33 c-5 17
-13 32 -17 32 -4 0 -11 -15 -15 -32 l-7 -33 -9 33 c-10 32 -20 43 -18 20z"/>
<path d="M323 165 c0 -22 2 -30 4 -17 2 12 2 30 0 40 -3 9 -5 -1 -4 -23z"/>
<path d="M351 161 c1 -36 1 -36 8 -6 3 17 11 30 16 30 5 0 13 -13 17 -30 6
-29 6 -29 5 5 -2 29 -6 35 -24 36 -20 1 -23 -3 -22 -35z"/>
<path d="M427 193 c-4 -3 -7 -17 -7 -30 0 -21 10 -28 33 -24 4 0 7 -4 7 -10 0
-6 -9 -9 -20 -6 -11 3 -18 1 -14 -4 3 -5 14 -9 25 -9 16 0 19 7 19 45 0 37 -3
45 -18 45 -10 0 -22 -3 -25 -7z m33 -22 c0 -23 -16 -36 -25 -21 -9 14 1 40 15
40 5 0 10 -9 10 -19z"/>
<path d="M494 188 c-4 -6 0 -16 9 -23 21 -15 22 -29 2 -21 -8 3 -15 1 -15 -5
0 -15 43 -7 48 9 2 7 -5 16 -17 19 -12 3 -21 10 -21 15 0 6 7 8 15 4 8 -3 15
-1 15 4 0 14 -27 12 -36 -2z"/>
<path d="M550 151 c0 -25 4 -41 8 -35 4 7 16 13 27 15 15 3 20 12 20 34 0 26
-4 30 -27 31 -27 1 -28 -1 -28 -45z m47 23 c8 -21 -13 -42 -28 -27 -13 13 -5
43 11 43 6 0 13 -7 17 -16z"/>
<path d="M630 191 c0 -6 7 -8 15 -5 8 4 15 2 15 -4 0 -5 -9 -12 -21 -15 -27
-7 -20 -31 10 -35 20 -3 22 0 19 30 -2 22 -9 34 -20 36 -10 2 -18 -1 -18 -7z
m30 -41 c0 -5 -4 -10 -10 -10 -5 0 -10 5 -10 10 0 6 5 10 10 10 6 0 10 -4 10
-10z"/>
<path d="M691 161 c1 -35 2 -35 8 -7 9 42 29 44 34 4 l5 -33 -2 35 c-1 29 -5
35 -23 36 -20 1 -23 -3 -22 -35z"/>
</g>
</svg>
